# xmcd
#
# Track frame offsets:
#	150
#	12519
#	25924
#	38109
#	53602
#	71235
#	83683
#	93268
#	106687
#	120345
#	138059
#	153149
#	167999
#	184528
#	209215
#	221540
#	237046
#	252095
#	266826
#	280872
#
# Disc length: 3940 seconds
#
# Revision: 1
# Processed by: cddbd v1.5.2PL0 Copyright (c) Steve Scherf et al.
# Submitted via: audiograbber 1.83.01
#
DISCID=0b0f6214
DTITLE=Various Artist - The Best Rythm and Blues
DYEAR=2010
DGENRE=Blues
TTITLE0=The Blues Brothers - Shake your Tail Feather
TTITLE1=The Blues Brothers - R-E-S-P-E-C-T
TTITLE2=Taj Mahal and Sam Moore - John The Revelator
TTITLE3=The Blues Brothers - Who's Making Love
TTITLE4=B.B. King - Right Tme, Wrong Place
TTITLE5=The Blues Brothers - Do You Love Me
TTITLE6=Peggie Lee - I'm A Woman
TTITLE7=John Lee Hooker - One Burbon, One Scotch, OneBeer
TTITLE8=The Blues Brothers - Soul Man
TTITLE9=Tina Turner - Rock Me Baby
TTITLE10=Cab Calloway - Minne The Moocher
TTITLE11=The Blues Brothers - Everybody Needs Someone To Love
TTITLE12=John Hammond - I've Got Love If You Want It
TTITLE13=B.B. King - Never Make A Move Too Soon
TTITLE14=The Blues Brothers - I Ain't Got You
TTITLE15=U2 and B.B. King - When Love Comes To Town
TTITLE16=The Blues Brothers - From The Bottom
TTITLE17=B.B. King - Better Not Look Down
TTITLE18=J.J. Cale and Eric Clapton - Don't Cry Sister Cry
TTITLE19=The Blues Brothers - Riot In Cell Block Number Nine
EXTD=antenna5 and Marma Records
EXTT0=
EXTT1=
EXTT2=
EXTT3=
EXTT4=
EXTT5=
EXTT6=
EXTT7=
EXTT8=
EXTT9=
EXTT10=
EXTT11=
EXTT12=
EXTT13=
EXTT14=
EXTT15=
EXTT16=
EXTT17=
EXTT18=
EXTT19=
PLAYORDER=
